<?xml version="1.0" standalone="no"?>
<!DOCTYPE svg PUBLIC "-//W3C//DTD SVG 1.1//EN" "http://www.w3.org/Graphics/SVG/1.1/DTD/svg11.dtd" >
<!--
2013-9-30: Created.
-->
<svg>
<metadata>
Created by iconfont
</metadata>
<defs>

<font id="iconfont" horiz-adv-x="1024" >
  <font-face
    font-family="iconfont"
    font-weight="500"
    font-stretch="normal"
    units-per-em="1024"
    ascent="896"
    descent="-128"
  />
    <missing-glyph />
    
    <glyph glyph-name="xingxing" unicode="&#58949;" d="M949.12 509.408c-4.864 15.008-17.856 25.952-33.44 28.192l-256.992 37.344-114.944 232.896c-6.976 14.144-21.376 23.104-37.152 23.104-15.776 0-30.176-8.96-37.152-23.104l-114.944-232.896L97.472 537.6c-15.616-2.272-28.576-13.184-33.44-28.192s-0.8-31.456 10.496-42.464l185.984-181.28-43.904-255.968c-2.656-15.552 3.712-31.264 16.48-40.544 12.768-9.28 29.664-10.496 43.648-3.136l229.888 120.864 229.856-120.864c6.048-3.168 12.672-4.768 19.264-4.768 8.576 0 17.152 2.656 24.352 7.904 12.768 9.28 19.136 24.992 16.48 40.544l-43.904 255.968 185.984 181.28C949.92 477.952 953.984 494.4 949.12 509.408z"  horiz-adv-x="1024" />

    
    <glyph glyph-name="statusiconpendingdownload" unicode="&#58898;" d="M881.679597-59.719894 136.991024-59.719894c-40.268122 0-73.030293 33.160237-73.030293 73.91443L63.960731 565.310416c0 40.755216 32.762171 73.90829 73.030293 73.90829l124.099413 0c17.477047 0 31.686676-14.376429 31.686676-32.04381 0-17.672498-14.210653-32.048927-31.66928-32.048927l-83.077114 0c-27.975145 0-50.737568-23.040762-50.737568-51.349505l0-468.048999c0-28.313859 22.7614-51.349505 50.737568-51.349505l662.60202 0c27.976168 0 50.743708 23.034623 50.743708 51.349505L891.376447 523.777487c0 28.307719-22.76754 51.349505-50.743708 51.349505l-83.071997 0c-17.464767 0-31.67542 14.376429-31.67542 32.04381 0 17.672498 14.210653 32.048927 31.67542 32.048927l124.117832 0c40.268122 0 73.030293-33.154098 73.030293-73.90829l0-551.114856C954.708867-26.559657 921.946696-59.719894 881.679597-59.719894zM720.66646 333.405695 533.750373 143.538393l-0.243547-0.290619c-5.980201-7.084349-14.673188-11.145851-23.836895-11.145851l-0.671289 0c-9.168824 0-17.856693 4.061502-23.836895 11.140735l-0.243547 0.290619L298.004161 333.405695c-12.221346 12.363585-12.221346 32.488948 0 44.846394l0.474814 0.480954c5.90857 5.986341 13.782911 9.287527 22.150486 9.287527 8.372691 0 16.240893-3.302209 22.161742-9.293667L477.6691 241.520985 477.6691 799.329287c0 17.482163 14.049994 31.711236 31.330566 31.711236l0.671289 0c17.274432 0 31.330566-14.228049 31.330566-31.711236L541.001521 241.520985l134.877897 137.205918c5.92085 5.991458 13.789051 9.293667 22.161742 9.293667 8.367575 0 16.235776-3.302209 22.155603-9.293667l0.474814-0.480954C732.881666 365.888504 732.881666 345.76928 720.66646 333.405695z"  horiz-adv-x="1024" />

    
    <glyph glyph-name="xingxing1" unicode="&#58913;" d="M769.097-39.636c-4.457 0-8.93 1.063-13.026 3.216L512 91.896 267.93-36.42a28 28 0 0 0-40.627 29.518l46.614 271.776L76.46 457.347a27.999 27.999 0 0 0 15.519 47.76l272.878 39.651 122.035 247.27a27.998 27.998 0 0 0 50.216 0l122.035-247.27 272.878-39.651a28.002 28.002 0 0 0 15.518-47.76L750.083 264.874l46.613-271.776a28 28 0 0 0-27.599-32.734zM512 151.53c4.476 0 8.951-1.072 13.029-3.216l206.883-108.766-39.511 230.367a27.995 27.995 0 0 0 8.053 24.784l167.37 163.146-231.301 33.61a27.998 27.998 0 0 0-21.082 15.317L512 716.368 408.559 506.773a28 28 0 0 0-21.082-15.317l-231.301-33.61L323.547 294.7a28.004 28.004 0 0 0 8.053-24.784l-39.511-230.367L498.97 148.314A27.99 27.99 0 0 0 512 151.53z"  horiz-adv-x="1024" />

    
    <glyph glyph-name="xiaoxi" unicode="&#58895;" d="M966.4-125.2c-2.8 0-5.4 0.4-8.2 1l-212.6 54.8C674-106 594-125.2 513.2-125.2 231.8-125.2 2.8 103.8 2.8 385.4S231.8 896 513.4 896 1024 667 1024 385.4c0-105.8-31.8-206.6-92.2-292.8l65.2-173.8c4.2-11.4 1.8-24.2-6.2-33.2-6.4-7-15.2-10.8-24.4-10.8z m-453 956C267.8 830.8 68 631 68 385.4 68 139.8 267.8-60 513.4-60c74.2 0 147.6 18.6 212.4 53.8 0.4 0.2 0.8 0.4 1.4 0.8 7.6 3.8 15.8 4.4 23.4 2.2l163.4-42.2-48.6 129.4c-4.8 10.6-3.8 23.4 3.6 33.2 58.8 77.8 89.8 170.6 89.8 268.2 0 245.6-199.8 445.4-445.4 445.4zM271.2 385.4c0-21.4 11.4-41 29.8-51.8 18.4-10.6 41.2-10.6 59.8 0 18.4 10.6 29.8 30.4 29.8 51.8s-11.4 41-29.8 51.8c-18.4 10.6-41.2 10.6-59.8 0-18.4-10.8-29.8-30.4-29.8-51.8M453.6 385.4c0-21.4 11.4-41 29.8-51.8 18.4-10.6 41.2-10.6 59.8 0 18.4 10.6 29.8 30.4 29.8 51.8s-11.4 41-29.8 51.8c-18.4 10.6-41.2 10.6-59.8 0-18.4-10.8-29.8-30.4-29.8-51.8M636 385.4c0-21.4 11.4-41 29.8-51.8 18.4-10.6 41.2-10.6 59.8 0 18.4 10.6 29.8 30.4 29.8 51.8s-11.4 41-29.8 51.8c-18.4 10.6-41.2 10.6-59.8 0-18.4-10.8-29.8-30.4-29.8-51.8"  horiz-adv-x="1024" />

    
    <glyph glyph-name="more" unicode="&#58922;" d="M606.5152 394.6496v-21.504c0-0.512-0.1024-1.1264-0.4096-1.9456-0.2048-0.7168-0.6144-1.6384-1.1264-2.6624-3.4816-22.016-13.4144-40.7552-29.5936-56.4224-16.2816-15.5648-34.9184-23.9616-55.9104-24.9856-23.9616-1.024-45.1584 5.12-63.3856 18.432-18.2272 13.312-30.1056 31.232-35.6352 53.6576-0.512 2.048-1.024 4.3008-1.536 6.8608s-1.024 4.8128-1.536 6.8608v21.504c0 0.512 0.2048 1.1264 0.7168 1.9456 0.512 0.7168 0.7168 1.6384 0.7168 2.6624 2.9696 22.016 12.8 40.7552 29.2864 56.4224 16.4864 15.5648 35.2256 23.9616 56.2176 24.9856 23.9616 1.024 45.1584-5.12 63.3856-18.432 18.2272-13.312 30.1056-31.232 35.6352-53.6576 0.512-2.048 1.024-4.3008 1.536-6.8608 0.6144-2.56 1.1264-4.8128 1.6384-6.8608z m0 312.2176v-20.6848c0-0.512-0.1024-1.2288-0.4096-2.2528-0.2048-1.024-0.6144-1.7408-1.1264-2.2528-2.9696-22.016-12.4928-40.7552-28.4672-56.4224-15.9744-15.5648-34.7136-23.8592-56.2176-24.8832-23.04-1.536-43.6224 3.9936-61.8496 16.4864-18.2272 12.4928-30.6176 30.0032-37.1712 52.5312-0.512 2.56-1.1264 5.3248-1.8432 8.3968-0.7168 3.072-1.3312 5.8368-1.8432 8.3968v20.6848c0 1.024 0.1024 1.7408 0.4096 2.2528l1.1264 2.2528c3.4816 19.968 10.8544 36.4544 22.1184 49.4592 11.264 13.0048 26.4192 22.6304 45.3632 28.7744 2.4576 0.512 5.0176 1.1264 7.4752 1.9456 2.4576 0.7168 5.0176 1.4336 7.4752 1.9456h20.992c0.512 0 1.1264-0.2048 1.8432-0.7168 0.7168-0.512 1.3312-0.7168 1.8432-0.7168 19.456-3.072 36.2496-11.264 50.2784-24.576 14.0288-13.312 23.2448-29.9008 27.7504-49.8688 0-1.536 0.2048-3.1744 0.7168-5.0176 0.512-1.7408 1.024-3.6864 1.536-5.7344zM417.4848 61.030399999999986v20.6848c0 0.512 0.1024 1.2288 0.4096 2.2528 0.2048 1.024 0.6144 1.7408 1.1264 2.2528 2.9696 22.016 12.4928 40.7552 28.4672 56.32 15.9744 15.5648 34.5088 23.8592 55.5008 24.8832 23.552 2.048 44.2368-3.1744 62.2592-15.6672s30.208-30.0032 36.7616-52.5312c1.024-2.56 1.8432-5.3248 2.6624-8.3968s1.3312-6.144 1.8432-9.216v-20.6848c0-1.024-0.1024-1.7408-0.4096-2.2528l-1.1264-2.2528c-2.9696-19.968-11.1616-37.1712-24.3712-51.712-13.2096-14.5408-29.5936-23.8592-49.152-27.9552-1.536-0.512-2.9696-0.9216-4.5056-1.1264-1.536-0.2048-2.9696-0.6144-4.5056-1.1264h-20.2752c-1.024 0-1.7408 0.1024-2.2528 0.4096l-2.2528 1.1264c-19.456 3.072-36.1472 11.264-49.8688 24.4736-13.7216 13.312-22.8352 29.5936-27.3408 49.0496-0.512 2.048-1.024 3.9936-1.536 5.7344s-0.9216 3.6864-1.4336 5.7344z"  horiz-adv-x="1024" />

    
    <glyph glyph-name="nc" unicode="&#58936;" d="M101.376 579.584h112.8448l147.3536-216.3712V579.584h113.9712v-391.168H361.5744L215.04 403.2512V188.416H101.376V579.584zM814.592 348.4672L920.576 316.5184c-7.0656-29.696-18.3296-54.4768-33.5872-74.4448-15.36-19.968-34.304-34.9184-56.9344-45.056-22.7328-10.1376-51.5072-15.2576-86.6304-15.2576-42.496 0-77.2096 6.144-104.2432 18.5344-26.9312 12.3904-50.176 34.0992-69.7344 65.2288-19.5584 31.1296-29.3888 70.9632-29.3888 119.5008 0 64.7168 17.2032 114.4832 51.6096 149.1968 34.5088 34.816 83.1488 52.1216 146.1248 52.1216 49.2544 0 88.064-9.9328 116.224-29.9008s49.152-50.4832 62.8736-91.7504l-106.7008-23.7568c-3.6864 11.9808-7.5776 20.5824-11.776 26.112-6.7584 9.216-15.0528 16.384-24.7808 21.2992-9.8304 5.0176-20.6848 7.4752-32.8704 7.4752-27.3408 0-48.4352-11.0592-62.976-33.0752-11.0592-16.384-16.5888-41.984-16.5888-77.0048 0-43.3152 6.5536-73.1136 19.7632-89.088 13.2096-16.0768 31.6416-24.1664 55.5008-24.1664 23.1424 0 40.5504 6.4512 52.4288 19.456 11.8784 13.0048 20.3776 31.8464 25.7024 56.5248z"  horiz-adv-x="1024" />

    
    <glyph glyph-name="gonggao" unicode="&#58937;" d="M765.7472 557.2608c89.4976-27.9552 153.7024-96.1536 153.7024-175.8208 0-79.872-63.6928-148.2752-153.7024-176.128V557.2608zM647.3728 781.0048L360.448 572.2112H188.7232c-48.0256 0-87.04-39.0144-87.04-87.04v-202.4448c0-48.128 39.0144-87.04 87.04-87.04h171.8272l286.8224-208.6912V781.0048z"  horiz-adv-x="1024" />

    
    <glyph glyph-name="guanzhu" unicode="&#58938;" d="M888.1152 630.0672C841.216 714.5472 754.688 766.976 653.312 768.3072c-49.9712 0.6144-98.9184-14.848-141.2096-41.6768l-1.2288-0.7168-1.024 0.7168c-46.8992 29.3888-101.5808 44.7488-156.7744 41.1648-94.8224-6.2464-175.2064-57.5488-219.5456-137.9328C75.264 524.1856 97.9968 392.192 183.3984 307.2l281.8048-280.6784 13.5168-13.5168c17.6128-17.6128 46.1824-17.6128 63.7952 0l13.7216 13.7216 0.1024-0.1024 281.9072 280.6784c85.504 85.0944 108.3392 217.1904 49.8688 322.7648"  horiz-adv-x="1024" />

    
    <glyph glyph-name="guanyunc" unicode="&#58939;" d="M511.0784 793.6C285.9008 793.6 101.6832 609.3824 101.6832 384.1024c0-225.1776 184.2176-409.4976 409.4976-409.4976S920.576 158.9248 920.576 384.1024c0 225.28-184.2176 409.4976-409.4976 409.4976m0-767.6928c-199.5776 0-358.2976 158.6176-358.2976 358.2976 0 199.5776 158.6176 358.2976 358.2976 358.2976 199.68-0.1024 358.2976-158.72 358.2976-358.4 0-199.5776-158.6176-358.1952-358.2976-358.1952M511.0784 230.6048c-15.36 0-25.6-5.12-35.84-15.36s-15.36-20.48-15.36-35.84 5.12-25.6 15.36-35.84 20.48-15.36 35.84-15.36 25.6 5.12 35.84 15.36 15.36 20.48 15.36 35.84-5.12 25.6-15.36 35.84-20.48 15.36-35.84 15.36zM465.1008 640.1024l15.2576-368.5376h56.32l20.48 368.5376z"  horiz-adv-x="1024" />

    
    <glyph glyph-name="nccloud" unicode="&#58940;" d="M734.1056 273.3056c-7.4752-1.3312-16.1792-1.9456-26.112-1.9456-7.9872 0-25.6-1.536-32.5632 0-7.0656 1.536-22.016 6.656-27.3408 10.24-5.3248 3.6864-9.728 8.8064-12.9024 15.2576-3.2768 6.4512-4.9152 14.5408-4.9152 24.2688 0 18.432 5.4272 31.4368 16.2816 38.8096 10.8544 7.4752 24.6784 10.9568 41.1648 10.9568 4.5056 0 27.4432 0.2048 31.4368 0 3.9936-0.1024 7.9872-0.4096 12.1856-0.9216 4.096-0.512 8.192-1.1264 12.8-0.4096 8.192 1.1264 8.192 8.3968 8.192 8.3968v44.7488c-6.144 1.4336-12.1856 2.4576-18.2272 3.2768-6.4512 0.8192-12.9024 1.3312-19.456 1.536-6.4512 0.3072-13.4144 0.4096-20.5824 0.4096-21.2992 0-40.448-2.56-56.832-7.9872-16.5888-5.2224-30.5152-12.5952-41.8816-21.9136-11.264-9.3184-19.968-20.5824-25.8048-33.6896-5.8368-13.1072-8.8064-27.5456-8.8064-43.3152 0-16.384 2.8672-30.9248 8.8064-43.9296 5.8368-13.0048 14.5408-24.064 26.112-33.4848 11.4688-9.3184 25.8048-16.384 42.496-21.504 16.896-4.9152 36.2496-7.4752 58.368-7.4752 13.2096 0 26.112 0.6144 39.2192 1.9456 5.2224 0.512 10.8544 1.536 16.4864 2.6624v45.056s1.024 11.776-12.4928 10.3424c-2.048-0.3072-3.8912-0.9216-5.632-1.3312zM466.2272 410.7264V299.8272l-36.5568 60.1088-36.4544 67.8912h-52.9408c-9.4208 0-17.1008-7.68-17.1008-17.1008v-196.9152h53.0432c9.4208 0 17.1008 7.68 17.1008 17.1008v105.472l36.5568-61.2352 36.5568-61.2352H520.0896c9.4208 0 17.1008 7.68 17.1008 17.1008V427.8272H483.328c-9.4208 0-17.1008-7.68-17.1008-17.1008z m-91.648 119.3984c37.2736 70.5536 110.592 118.4768 194.7648 118.4768 118.4768 0 215.1424-94.72 220.8768-213.8112 73.9328-12.4928 130.3552-77.824 130.3552-156.5696 0-87.6544-69.8368-158.72-156.0576-158.72-4.4032 0-8.704 0.2048-13.0048 0.512v-0.512H270.336v0.1024c-2.1504-0.1024-4.3008-0.1024-6.5536-0.1024-89.8048 0-162.6112 74.0352-162.6112 165.376 0 74.5472 48.4352 137.5232 114.9952 158.208 1.6384 57.0368 47.5136 102.7072 104.0384 102.7072 19.968-0.1024 38.6048-5.8368 54.3744-15.6672z"  horiz-adv-x="1024" />

    
    <glyph glyph-name="paihangbang" unicode="&#58941;" d="M801.792 186.368H220.16c-30.72 0-53.248 24.576-53.248 53.248V354.304c0 30.72 24.576 53.248 53.248 53.248h583.68c30.72 0 53.248-24.576 53.248-53.248v-114.688c0-28.672-24.576-53.248-55.296-53.248zM879.616 0H142.336c-22.528 0-40.96 18.432-40.96 40.96s18.432 40.96 40.96 40.96h737.28c22.528 0 40.96-18.432 40.96-40.96s-18.432-40.96-40.96-40.96zM224.256 194.56h32.768V610.304h-32.768v-415.744z m40.96-81.92h-49.152c-40.96 0-73.728 32.768-73.728 73.728V618.496c0 40.96 32.768 73.728 73.728 73.728h49.152c40.96 0 73.728-32.768 73.728-73.728v-432.128c0-40.96-32.768-73.728-73.728-73.728z m499.712 81.92h32.768V438.272h-32.768v-243.712z m47.104-81.92h-61.44c-36.864 0-67.584 30.72-67.584 67.584V452.608c0 36.864 30.72 67.584 67.584 67.584h61.44c36.864 0 67.584-30.72 67.584-67.584v-272.384c0-36.864-30.72-67.584-67.584-67.584z m-317.44 81.92h32.768V686.08h-32.768v-491.52z m38.912-81.92h-45.056c-40.96 0-75.776 34.816-75.776 75.776V692.224c0 40.96 34.816 75.776 75.776 75.776h45.056c40.96 0 75.776-34.816 75.776-75.776v-503.808c0-40.96-34.816-75.776-75.776-75.776z"  horiz-adv-x="1024" />

    
    <glyph glyph-name="guanzhu1" unicode="&#58942;" d="M566.8864 384c0-63.1808 33.6896-121.5488 88.3712-153.088 54.6816-31.5392 122.1632-31.5392 176.8448 0C886.8864 262.4512 920.576 320.8192 920.576 384s-33.6896 121.5488-88.3712 153.088c-54.6816 31.5392-122.1632 31.5392-176.8448 0s-88.4736-89.9072-88.4736-153.088zM731.8528 361.7792l-253.952-252.8256-253.952 252.8256c-56.9344 56.832-72.9088 144.9984-34.2016 215.4496 30.8224 55.9104 87.6544 90.8288 154.2144 92.4672 34.0992 0.9216 67.584-9.5232 96.4608-27.7504l1.2288-0.8192 23.6544-14.1312c7.5776-4.5056 16.9984-4.5056 24.6784 0l23.7568 14.2336s9.8304 6.2464 18.432 11.5712c8.192 5.12 16.896 9.216 26.3168 11.3664 88.7808 20.1728 168.448-16.7936 207.1552-86.9376 39.2192-70.4512 23.2448-158.6176-33.792-215.4496z m93.2864 248.6272c-43.1104 77.824-122.7776 125.952-216.064 127.1808-45.9776 0.6144-91.0336-13.7216-129.9456-38.4l-1.1264-0.7168-0.9216 0.6144c-43.1104 27.0336-93.4912 41.1648-144.2816 37.888-87.2448-5.7344-161.1776-52.9408-202.0352-126.976C77.2096 513.024 98.0992 391.5776 176.64 313.344l259.3792-258.2528 12.4928-12.4928c16.2816-16.2816 42.496-16.2816 58.7776 0l12.5952 12.5952 0.1024-0.1024L779.3664 313.344c78.6432 78.336 99.6352 199.9872 45.7728 297.0624z"  horiz-adv-x="1024" />

    
    <glyph glyph-name="sousuoziliao" unicode="&#58943;" d="M354.2016 358.1952c0-103.936 84.2752-188.2112 188.2112-188.2112 103.936 0 188.2112 84.2752 188.2112 188.2112 0 67.2768-35.84 129.4336-94.1056 163.0208-58.2656 33.5872-129.9456 33.5872-188.2112 0s-94.1056-95.8464-94.1056-163.0208zM711.104512 133.7344l51.191808 51.191808L921.591808 25.63072 870.4-25.561088zM295.424 758.3744c-69.3248-31.232-125.3376-87.2448-156.5696-156.5696-141.312-313.344 162.9184-617.6768 476.3648-476.3648 69.3248 31.232 125.3376 87.2448 156.4672 156.5696C913.1008 595.456 608.768 899.6864 295.424 758.3744z m19.5584-561.3568c-45.056 22.6304-82.0224 59.5968-104.6528 104.6528C80.7936 559.616 337.7152 816.4352 595.6608 686.8992c45.1584-22.528 82.1248-59.4944 104.7552-104.5504 129.3312-258.048-127.3856-514.8672-385.4336-385.3312z"  horiz-adv-x="1024" />

    
    <glyph glyph-name="chanpintian" unicode="&#58944;" d="M480.0512 540.16h398.1312v-512.7168H480.0512zM717.9264 175.9232L573.8496 49.7664H220.8768V718.0288h497.0496v-542.1056z m7.4752 617.472H213.2992c-37.376 0-67.7888-30.4128-67.7888-67.7888v-683.4176c0-37.376 30.4128-67.7888 67.7888-67.7888H602.112l191.0784 167.424V725.6064c0 37.376-30.4128 67.7888-67.7888 67.7888zM334.336 189.952h270.1312c20.6848 0 37.5808 16.896 37.5808 37.5808 0 20.6848-16.896 37.5808-37.5808 37.5808H334.336c-20.6848 0-37.5808-16.896-37.5808-37.5808-0.1024-20.5824 16.7936-37.5808 37.5808-37.5808z m0 156.2624h270.1312c20.6848 0 37.5808 16.896 37.5808 37.5808 0 20.6848-16.896 37.5808-37.5808 37.5808H334.336c-20.6848 0-37.5808-16.896-37.5808-37.5808-0.1024-20.5824 16.7936-37.5808 37.5808-37.5808z m0 156.3648h270.1312c20.6848 0 37.5808 16.896 37.5808 37.5808 0 20.6848-16.896 37.5808-37.5808 37.5808H334.336c-20.6848 0-37.5808-16.896-37.5808-37.5808-0.1024-20.6848 16.7936-37.5808 37.5808-37.5808z"  horiz-adv-x="1024" />

    
    <glyph glyph-name="kaifaziliao" unicode="&#58945;" d="M366.8992 606.3104h289.8944v-239.2064H366.8992zM760.4224 49.7664H263.4752V718.2336H616.448L760.4224 591.872v-542.1056zM644.7104 793.6H255.8976c-37.376 0-67.7888-30.4128-67.7888-67.7888v-683.52c0-37.376 30.4128-67.7888 67.7888-67.7888H768c37.376 0 67.7888 30.4128 67.7888 67.7888V626.0736L644.7104 793.6zM678.0928 306.2784H345.8048c-20.7872 0-37.5808-16.9984-37.5808-37.5808 0-20.7872 16.9984-37.5808 37.5808-37.5808h332.3904c20.7872 0 37.5808 16.9984 37.5808 37.5808 0 20.6848-16.9984 37.5808-37.6832 37.5808zM308.1216 499.3024c0-20.7872 16.9984-37.5808 37.5808-37.5808h332.3904c20.7872 0 37.5808 16.9984 37.5808 37.5808 0 20.7872-16.9984 37.5808-37.5808 37.5808H345.8048c-20.7872 0.1024-37.6832-16.896-37.6832-37.5808z"  horiz-adv-x="1024" />

    
    <glyph glyph-name="xuanshangshenqing" unicode="&#58946;" d="M758.8864 177.0496L512 47.7184 265.1136 177.0496V721.408h493.8752v-544.3584z m7.2704 616.5504H257.8432c-35.9424 0-65.1264-29.184-65.1264-65.1264v-555.9296c0-24.2688 13.4144-46.3872 34.9184-57.6512l253.952-133.0176c9.5232-5.0176 19.968-7.4752 30.4128-7.4752s20.8896 2.4576 30.4128 7.4752l253.952 133.12c21.504 11.264 34.9184 33.3824 34.9184 57.6512V728.576c0 35.9424-29.2864 65.024-65.1264 65.024zM394.6496 329.3184l-5.632-90.0096c0-0.6144-0.1024-1.2288-0.1024-1.7408 0-15.4624 12.4928-27.8528 27.8528-27.8528 3.3792 0 6.7584 0.6144 9.9328 1.8432l85.1968 32.4608 85.1968-32.4608c3.1744-1.2288 6.5536-1.8432 9.9328-1.8432h0.2048c1.4336 0 2.9696 0.1024 4.5056 0.3072 15.2576 2.4576 25.4976 16.896 23.04 32.0512l-5.3248 87.1424 58.2656 71.7824c2.56 3.1744 4.5056 6.9632 5.4272 10.9568 3.6864 14.9504-5.5296 30.1056-20.48 33.6896l-88.064 21.6064-48.9472 78.0288c-2.2528 3.584-5.2224 6.5536-8.8064 8.8064-13.0048 8.192-30.3104 4.1984-38.5024-8.8064l-48.9472-78.0288-87.9616-21.6064c-3.9936-0.9216-7.68-2.8672-10.9568-5.4272-11.9808-9.728-13.824-27.2384-4.096-39.2192l58.2656-71.68z"  horiz-adv-x="1024" />

    
    <glyph glyph-name="shenqingzhanghu" unicode="&#58947;" d="M885.3504 8.8064c22.8352 0 41.472 22.8352 33.1776 45.568-43.52 116.1216-155.4432 199.0656-288.1536 199.0656s-244.6336-82.944-288.1536-199.0656c-10.3424-22.8352 8.2944-45.568 31.1296-45.568h512zM765.1328 394.3424c0-74.6496-62.1568-136.8064-136.8064-136.8064-74.6496 0-136.8064 62.1568-136.8064 136.8064 0 74.6496 62.1568 136.8064 136.8064 136.8064 76.6976 0 136.8064-60.1088 136.8064-136.8064zM497.7664 678.4c-68.4032 0-124.416-56.0128-124.416-124.416s56.0128-124.416 124.416-124.416S622.1824 485.5808 622.1824 553.984c-0.1024 68.4032-56.0128 124.416-124.416 124.416z m0-337.92c-136.8064 0-263.2704-87.04-310.9888-215.6544h621.9776c-47.7184 128.6144-174.1824 215.6544-310.9888 215.6544zM186.7776 41.8816c-26.9312 0-51.8144 12.3904-68.4032 35.2256-14.5408 22.8352-18.6368 49.7664-10.3424 76.6976 43.52 116.1216 136.8064 205.2096 250.88 244.6336-41.472 37.2736-68.4032 93.2864-68.4032 153.3952 0 114.0736 93.2864 207.36 207.36 207.36s207.36-93.2864 207.36-207.36c0-62.1568-26.9312-116.1216-68.4032-153.3952 114.0736-39.424 207.36-128.512 250.88-244.6336 10.3424-24.8832 6.2464-53.8624-10.3424-76.6976-16.5888-22.8352-41.472-35.2256-68.4032-35.2256H186.7776z"  horiz-adv-x="1024" />

    
    <glyph glyph-name="tubiaotongji" unicode="&#58948;" d="M126.32064 330.962944l696.164352 451.908608 45.664256-70.345728-696.163328-451.909632zM827.0848 50.7904c0-2.4576-1.9456-4.5056-4.4032-4.5056H751.616c-2.4576 0-4.4032 2.048-4.4032 4.5056V715.1616c0 2.4576 1.9456 4.5056 4.4032 4.5056h71.0656c2.4576 0 4.4032-1.9456 4.4032-4.5056v-664.3712zM822.6816 791.552H751.616c-41.3696 0-74.9568-34.2016-74.9568-76.3904v-664.3712c0-42.1888 33.6896-76.3904 74.9568-76.3904h71.0656c41.3696 0 74.9568 34.304 74.9568 76.3904V715.1616c0 42.0864-33.6896 76.3904-74.9568 76.3904zM551.936 46.2848l-79.872-0.7168-0.7168 492.032 80.6912 0.7168v-492.032z m0.8192 563.0976h-81.408c-38.5024 0-69.8368-31.8464-69.8368-71.168v-492.7488c0-39.2192 31.3344-71.168 69.8368-71.168h81.408c38.5024 0 69.8368 31.8464 69.8368 71.168V538.3168c-0.1024 39.2192-31.3344 71.0656-69.8368 71.0656zM276.7872 46.2848h-79.872V350.6176h79.872v-304.3328z m7.168 376.2176h-94.0032c-35.0208 0-63.488-29.0816-63.488-64.7168v-318.7712c0-35.6352 28.4672-64.7168 63.488-64.7168h94.0032c35.0208 0 63.488 29.0816 63.488 64.7168V357.7856c-0.1024 35.7376-28.5696 64.7168-63.488 64.7168z"  horiz-adv-x="1024" />

    
    <glyph glyph-name="enter" unicode="&#59128;" d="M693.792 397.76l-320 297.664a32 32 0 0 1-43.584-46.848l295.36-274.752-295.84-286.848a31.968 31.968 0 1 1 44.544-45.92l320 310.272a31.968 31.968 0 0 1-0.48 46.4"  horiz-adv-x="1024" />

    
    <glyph glyph-name="like_fill" unicode="&#59143;" d="M672 704a222.72 222.72 0 0 1-160-67.68A222.592 222.592 0 0 1 352 704c-123.52 0-224-101.184-224-225.6 0-52.256 18.144-103.2 52.928-145.536l285.952-293.984a62.528 62.528 0 0 1 90.208 0l287.808 296.032A227.136 227.136 0 0 1 896 478.4C896 602.816 795.52 704 672 704"  horiz-adv-x="1024" />

    
    <glyph glyph-name="like" unicode="&#59144;" d="M797.184 377.504l-284.384-294.016-284.16 292A162.752 162.752 0 0 0 192 478.4C192 567.488 263.808 640 352 640a159.36 159.36 0 0 0 133.28-72.16L512 527.36l26.72 40.48A159.488 159.488 0 0 0 672 640c88.224 0 160-72.512 160-161.6 0-37.536-12.992-74.08-34.816-100.896M672 704a222.72 222.72 0 0 1-160-67.712A222.624 222.624 0 0 1 352 704c-123.52 0-224-101.216-224-225.6 0-52.288 18.176-103.232 52.96-145.536l285.952-293.984a62.4 62.4 0 0 1 45.088-19.168c17.12 0 33.12 6.816 45.12 19.136l287.744 296.064A226.816 226.816 0 0 1 896 478.4C896 602.784 795.52 704 672 704"  horiz-adv-x="1024" />

    
    <glyph glyph-name="praise_fill" unicode="&#59162;" d="M866.272 513.664c-15.584 19.296-39.872 30.336-66.592 30.336h-164.992c23.168 67.232 5.376 145.024 4.352 149.312a30.944 30.944 0 0 1-4.928 10.656A95.808 95.808 0 0 1 544 768a95.84 95.84 0 0 1-95.456-90.72H448V656a111.328 111.328 0 0 0-37.984-83.392c-16-14.208-35.904-23.776-58.016-26.976V32h384.16c32.352 0 63.04 24.96 69.888 56.8l75.904 354.208c5.504 25.76-0.192 51.488-15.68 70.656M192.192 544C156.8 544 128 515.2 128 479.776v-383.552C128 60.832 156.64 32 191.84 32H288V544H192.192z"  horiz-adv-x="1024" />

    
    <glyph glyph-name="praise" unicode="&#59163;" d="M819.36 456.416l-75.904-354.176c-0.576-2.688-5.088-6.24-7.296-6.24L352 96.16V480h2.88v1.056A176.224 176.224 0 0 1 512 656V672a32.032 32.032 0 0 0 64 0h2.048c6.336-32.8 11.968-106.496-23.872-139.904A32 32 0 0 1 576 476.672c4.64 0 9.152 1.344 13.44 3.328h210.24c7.424 0 13.376-2.336 16.832-6.592 3.296-4.096 4.32-10.144 2.848-16.992zM192.192 480H288v-383.808H192L192.192 480z m674.08 33.664c-15.584 19.296-39.872 30.336-66.592 30.336h-164.992c23.168 67.2 5.376 145.024 4.352 149.312a30.944 30.944 0 0 1-4.928 10.656 95.808 95.808 0 0 1-90.112 64 95.84 95.84 0 0 1-95.456-90.688H448V656c0-61.76-50.24-112-112-112H192.192C156.8 544 128 515.2 128 479.776v-383.552C128 60.8 156.64 32 191.84 32h544.32c32.352 0 63.04 24.96 69.888 56.8l75.904 354.208c5.504 25.76-0.192 51.488-15.68 70.656z"  horiz-adv-x="1024" />

    


  </font>
</defs>
</svg>
